<svg width="23" height="23" viewBox="0 0 23 23" fill="none" xmlns="http://www.w3.org/2000/svg">
  <path d="M6.07 0.5H16.28C16.28 0.5 21.85 0.5 21.85 6.07V16.28C21.85 16.28 21.85 21.85 16.28 21.85H6.07C6.07 21.85 0.5 21.85 0.5 16.28V6.07C0.5 6.07 0.5 0.5 6.07 0.5Z" stroke="#0075BA" stroke-linecap="round" stroke-linejoin="round"/>
  <path d="M6.07001 11.3717C6.07001 12.0417 6.20001 12.7017 6.46001 13.3217C6.72001 13.9417 7.09001 14.5017 7.57001 14.9817C8.04001 15.4517 8.61001 15.8317 9.23001 16.0917C9.85001 16.3517 10.51 16.4817 11.18 16.4817C11.85 16.4817 12.51 16.3517 13.13 16.0917C13.75 15.8317 14.31 15.4617 14.79 14.9817C15.26 14.5117 15.64 13.9417 15.9 13.3217C16.16 12.7017 16.29 12.0417 16.29 11.3717C16.29 10.7017 16.16 10.0417 15.9 9.42172C15.64 8.80172 15.27 8.24172 14.79 7.76172C14.32 7.29172 13.75 6.91172 13.13 6.65172C12.51 6.39172 11.85 6.26172 11.18 6.26172C10.51 6.26172 9.85001 6.39172 9.23001 6.65172C8.61001 6.91172 8.05001 7.28172 7.57001 7.76172C7.10001 8.23172 6.72001 8.80172 6.46001 9.42172C6.20001 10.0417 6.07001 10.7017 6.07001 11.3717Z" stroke="#0075BA" stroke-linecap="round" stroke-linejoin="round"/>
  <path d="M7.92999 11.3711C7.92999 12.2311 8.26999 13.0611 8.87999 13.6711C9.48999 14.2811 10.32 14.6211 11.18 14.6211C12.04 14.6211 12.87 14.2811 13.48 13.6711C14.09 13.0611 14.43 12.2311 14.43 11.3711C14.43 10.5111 14.09 9.68109 13.48 9.07109C12.87 8.46109 12.04 8.12109 11.18 8.12109C10.32 8.12109 9.48999 8.46109 8.87999 9.07109C8.26999 9.68109 7.92999 10.5111 7.92999 11.3711Z" stroke="#0075BA" stroke-linecap="round" stroke-linejoin="round"/>
  <path d="M17.53 6.08953C18.3087 6.08953 18.94 5.45825 18.94 4.67953C18.94 3.90081 18.3087 3.26953 17.53 3.26953C16.7513 3.26953 16.12 3.90081 16.12 4.67953C16.12 5.45825 16.7513 6.08953 17.53 6.08953Z" stroke="#0075BA" stroke-linecap="round" stroke-linejoin="round"/>
</svg>
