<svg width="23" height="23" viewBox="0 0 23 23" fill="none" xmlns="http://www.w3.org/2000/svg">
  <path d="M5.52 17.0789H16.84C17.16 17.0789 17.47 17.0189 17.76 16.8989C18.05 16.7789 18.32 16.5989 18.54 16.3789C18.76 16.1589 18.94 15.8889 19.06 15.5989C19.18 15.3089 19.24 14.9889 19.24 14.6789V8.27891C19.24 7.95891 19.18 7.64891 19.06 7.35891C18.94 7.06891 18.76 6.79891 18.54 6.57891C18.32 6.35891 18.05 6.17891 17.76 6.05891C17.47 5.93891 17.15 5.87891 16.84 5.87891H5.52C5.2 5.87891 4.89 5.93891 4.6 6.05891C4.31 6.17891 4.04 6.35891 3.82 6.57891C3.6 6.79891 3.42 7.06891 3.3 7.35891C3.18 7.64891 3.12 7.96891 3.12 8.27891V14.6789M9.42 14.2289V8.14891L14.17 11.1889L9.42 14.2289Z" stroke="#0075BA" stroke-width="1.11" stroke-linecap="round" stroke-linejoin="round"/>
  <path d="M6.07 0.5H16.28C16.28 0.5 21.85 0.5 21.85 6.07V16.28C21.85 16.28 21.85 21.85 16.28 21.85H6.07C6.07 21.85 0.5 21.85 0.5 16.28V6.07C0.5 6.07 0.5 0.5 6.07 0.5Z" stroke="#0075BA" stroke-linecap="round" stroke-linejoin="round"/>
</svg>
