<svg width="23" height="23" viewBox="0 0 23 23" fill="none" xmlns="http://www.w3.org/2000/svg">
  <path d="M3.86 19.4319V9.34188H7.19V19.4319M15.11 19.4319V13.3419C15.11 13.1619 15.08 12.9919 15.01 12.8319C14.94 12.6719 14.84 12.5219 14.72 12.4019C14.6 12.2819 14.45 12.1819 14.29 12.1119C14.13 12.0419 13.95 12.0119 13.78 12.0119C13.43 12.0119 13.09 12.1519 12.84 12.4019C12.59 12.6519 12.45 12.9919 12.45 13.3419V19.4319M9.1 19.4319V9.34188H12.43V10.3319C13.17 9.70187 14.12 9.35187 15.09 9.33187C17.07 9.33187 18.43 10.8019 18.43 13.5719V19.4319M7.19 6.34188C7.19 6.67188 7.09 6.99187 6.91 7.27187C6.73 7.54187 6.47 7.76188 6.16 7.88188C5.86 8.01188 5.52 8.04187 5.2 7.97187C4.88 7.91187 4.58 7.75188 4.35 7.51188C4.12 7.28188 3.96 6.98187 3.89 6.66187C3.83 6.34187 3.86 6.00187 3.98 5.70187C4.11 5.40187 4.32 5.13187 4.59 4.95187C4.86 4.77187 5.19 4.67188 5.52 4.67188C5.96 4.67188 6.39 4.85187 6.7 5.16187C7.01 5.47187 7.19 5.90188 7.19 6.34188Z" stroke="#0075BA" stroke-linecap="round" stroke-linejoin="round"/>
  <path d="M6.07 0.5H16.28C16.28 0.5 21.85 0.5 21.85 6.07V16.28C21.85 16.28 21.85 21.85 16.28 21.85H6.07C6.07 21.85 0.5 21.85 0.5 16.28V6.07C0.5 6.07 0.5 0.5 6.07 0.5Z" stroke="#0075BA" stroke-linecap="round" stroke-linejoin="round"/>
</svg>
