<svg width="23" height="23" viewBox="0 0 23 23" fill="none" xmlns="http://www.w3.org/2000/svg">
  <path d="M12.83 19.5014V12.6514H16.23L16.6 9.12141H12.83V7.44141C12.81 7.31141 12.82 7.19141 12.86 7.07141C12.9 6.95141 12.96 6.84141 13.05 6.74141C13.13 6.65141 13.24 6.58141 13.35 6.53141C13.47 6.48141 13.6 6.46141 13.72 6.47141C14.09 6.47141 16.36 6.48141 16.36 6.48141V2.94141H12.54C9.07001 2.94141 8.41001 5.56141 8.41001 7.22141V9.12141H5.76001V12.6514H8.41001V19.4614" stroke="#0075BA" stroke-linecap="round" stroke-linejoin="round"/>
  <path d="M12.83 21.86H16.29C21.86 21.86 21.86 16.29 21.86 16.29V6.07C21.86 0.5 16.29 0.5 16.29 0.5H6.07C0.5 0.5 0.5 6.07 0.5 6.07V16.29C0.5 21.86 6.07 21.86 6.07 21.86H13.22" stroke="#0075BA" stroke-linecap="round" stroke-linejoin="round"/>
</svg>
